<?xml version="1.0" encoding="UTF-8"?>
<svg enable-background="new 0 0 112.6 105.5" version="1.1" viewBox="0 0 112.6 105.5" xml:space="preserve" xmlns="http://www.w3.org/2000/svg">
<style type="text/css">
	.st0{fill:url(#c);}
	.st1{fill:#FFFFFF;}
	.st2{fill:url(#b);stroke:url(#a);stroke-width:8.5;stroke-linecap:round;stroke-linejoin:round;}
</style>
<linearGradient id="c" x1="3.5417" x2="109.08" y1="52.767" y2="52.767" gradientUnits="userSpaceOnUse">
	<stop stop-color="#8877B5" offset="0"/>
	<stop stop-color="#5E95CC" offset="1"/>
</linearGradient>
<path class="st0" d="m106.7 56.9c-3.7 10.3-10.4 18.1-23.9 27.9-4.5 3.2-9 7.5-10.5 9-3.7 5.3-9.5 8.3-15.8 8.4h-0.4c-7.1 0-13.5-3.7-17.2-10-0.7-0.7-2.7-2.5-5-4.2-8.9-6.7-10.6-8.2-14.7-11.8-10.6-9.8-15.7-21.1-15.7-34.7 0-5.6 0.6-10.5 3.3-16.3 3.8-7.9 9.5-13.9 17-17.8 4.3-2.2 8.5-4.1 16.9-4.1 7.1 0 11.1 1.1 15.6 3.4 5-2.3 10.5-3.5 16.1-3.4 6.8 0.1 13.4 2.1 19.2 5.6 5.8 3.6 10.5 8.7 13.6 14.8 4.5 8.7 5.2 23 1.5 33.2z"/>
<path class="st1" d="m99.6 54.4c-3.2 8.8-8.9 15.4-21.2 24.3-5.3 3.8-10.5 8.8-11.9 10.3-2.4 3.6-6 5.6-10.1 5.7h-0.2c-4.7 0-8.7-2.5-11-6.7l-0.2-0.2s-0.1-0.1-0.4-0.5c-0.6-0.7-3.3-3.1-6.2-5.3-8.8-6.7-10.4-7.9-14.2-11.4-9-8.3-13.2-17.6-13.2-29.1 0-4.8 0.4-8.5 2.6-13.1 3.1-6.4 7.6-11.2 13.7-14.3 3.7-1.9 6.8-3.3 13.5-3.3 6.4 0 9.3 1 13.7 3.3 0.6 0.3 1.3 0.7 1.9 1.1 4.7-3 10.2-4.6 16-4.5 5.5 0.1 10.8 1.7 15.4 4.5 4.6 2.9 8.4 6.9 10.8 11.8 3.5 7 4 19 1 27.4z"/>
<linearGradient id="b" x1="-562.37" x2="-562.37" y1="220.59" y2="204.87" gradientTransform="matrix(3.7795 0 0 -3.7795 2181.8 856.78)" gradientUnits="userSpaceOnUse">
	<stop stop-color="#F8F9FD" offset="0"/>
	<stop stop-color="#929ACD" offset=".67"/>
</linearGradient>
<linearGradient id="a" x1="-575.41" x2="-549.44" y1="212.73" y2="212.73" gradientTransform="matrix(3.7795 0 0 -3.7795 2181.8 856.78)" gradientUnits="userSpaceOnUse">
	<stop stop-color="#514696" offset="0"/>
	<stop stop-color="#434E9C" offset="1"/>
</linearGradient>
<path class="st2" d="m72.1 23.1c-6.1-0.1-12.1 3-15 9.3l-1 2.2-0.4-1.6c-0.7-2.6-3.9-6.3-7-8-2.6-1.4-3.5-1.9-7.9-1.9-4.2 0-5.4 0.6-7.9 1.9-3.5 1.8-6.3 4.7-8.2 8.7-1.1 2.3-1.4 3.9-1.4 7.8 0 8.1 2.7 14.1 9.2 20.1 3.5 3.2 4.7 4.2 13.3 10.7 2.9 2.2 6.5 5.3 7.9 6.9 2.7 3 2.1 4 2.7 2.8 0.5-1 8.1-8.4 14.8-13.2 10.2-7.4 14.6-12.2 16.9-18.6 1.8-4.9 1.6-13.5-0.5-17.5-3.2-6.3-9.4-9.5-15.5-9.6z"/>
</svg>
